<?xml version="1.0" encoding="UTF-8"?>
<svg xmlns="http://www.w3.org/2000/svg" xmlns:xlink="http://www.w3.org/1999/xlink" clip-rule="evenodd" stroke-miterlimit="10" viewBox="0 0 2835.00 2126.00">
    <desc>SVG generated by Lineform</desc>
    <defs/>
    <g>
        <rect width="2835.40" height="2126.55" x="0.25" y="1.25" fill="#E12F82"/>
        <path d="M 0.25 -5.00 L 2836.00 2120.56 Z M 0.25 -5.00 " fill="#FFFFFF" stroke="#FFFFFF" stroke-width="87.21" stroke-linecap="round" stroke-linejoin="round"/>
        <path d="M 2834.75 2.50 L -1.00 2128.06 Z M 2834.75 2.50 " fill="#FFFFFF" stroke="#FFFFFF" stroke-width="87.21" stroke-linecap="round" stroke-linejoin="round"/>
        <ellipse cx="1418.75" cy="1057.16" rx="544.52" ry="544.52" fill="#E12F82" stroke="#FFFFFF" stroke-width="87.21"/>
        <path d="M 1409.52 931.12 L 1281.32 931.12 C 1281.32 907.13 1281.05 892.00 1280.52 885.73 C 1280.00 879.47 1277.46 874.22 1272.91 869.97 C 1268.36 865.72 1262.17 863.60 1254.34 863.60 C 1247.79 863.60 1242.39 865.62 1238.16 869.65 C 1233.93 873.68 1231.50 878.89 1230.86 885.26 C 1230.23 891.63 1229.91 904.47 1229.91 923.79 L 1229.91 1005.97 C 1236.47 992.17 1246.09 981.81 1258.79 974.91 C 1271.48 968.01 1287.13 964.56 1305.75 964.56 C 1329.23 964.56 1349.97 970.93 1367.95 983.67 C 1385.93 996.41 1397.35 1011.70 1402.22 1029.54 C 1407.08 1047.37 1409.52 1071.47 1409.52 1101.84 L 1409.52 1142.92 C 1409.52 1179.02 1408.14 1205.88 1405.39 1223.50 C 1402.64 1241.13 1395.29 1257.42 1383.34 1272.39 C 1371.38 1287.36 1354.99 1298.99 1334.15 1307.27 C 1313.31 1315.55 1289.04 1319.69 1261.33 1319.69 C 1226.84 1319.69 1198.60 1314.91 1176.60 1305.36 C 1154.60 1295.80 1137.62 1282.05 1125.67 1264.11 C 1113.72 1246.17 1106.74 1227.32 1104.73 1207.58 C 1102.72 1187.83 1101.71 1149.50 1101.71 1092.60 L 1101.71 1021.26 C 1101.71 959.89 1102.61 918.86 1104.41 898.16 C 1106.21 877.45 1113.56 857.87 1126.46 839.39 C 1139.37 820.92 1156.98 807.06 1179.30 797.83 C 1201.62 788.59 1227.37 783.97 1256.57 783.97 C 1292.53 783.97 1322.04 789.81 1345.10 801.49 C 1368.16 813.17 1384.66 829.62 1394.60 850.86 C 1404.55 872.09 1409.52 898.85 1409.52 931.12 Z M 1281.32 1091.96 C 1281.32 1073.70 1279.31 1061.17 1275.29 1054.38 C 1271.27 1047.58 1264.71 1044.19 1255.61 1044.19 C 1246.73 1044.19 1240.22 1047.43 1236.10 1053.90 C 1231.97 1060.38 1229.91 1073.06 1229.91 1091.96 L 1229.91 1185.28 C 1229.91 1208.00 1231.87 1222.87 1235.78 1229.87 C 1239.70 1236.88 1246.20 1240.38 1255.30 1240.38 C 1260.80 1240.38 1266.51 1237.68 1272.43 1232.26 C 1278.36 1226.85 1281.32 1212.25 1281.32 1188.47 Z M 1756.03 968.70 L 1756.03 1140.69 C 1756.03 1179.76 1753.92 1208.21 1749.69 1226.05 C 1745.46 1243.89 1736.68 1260.55 1723.35 1276.06 C 1710.02 1291.56 1693.94 1302.70 1675.12 1309.50 C 1656.29 1316.29 1635.24 1319.69 1611.97 1319.69 C 1581.29 1319.69 1555.80 1316.13 1535.49 1309.02 C 1515.19 1301.91 1499.00 1290.81 1486.94 1275.74 C 1474.88 1260.66 1466.32 1244.79 1461.24 1228.12 C 1456.16 1211.45 1453.62 1184.96 1453.62 1148.66 L 1453.62 968.70 C 1453.62 921.35 1457.70 885.89 1465.84 862.32 C 1473.99 838.76 1490.17 819.86 1514.39 805.63 C 1538.61 791.41 1567.97 784.29 1602.45 784.29 C 1630.59 784.29 1655.76 789.23 1677.97 799.10 C 1700.19 808.98 1716.79 821.03 1727.79 835.25 C 1738.79 849.48 1746.25 865.51 1750.16 883.35 C 1754.08 901.18 1756.03 929.63 1756.03 968.70 Z M 1627.84 925.39 C 1627.84 898.00 1626.51 880.85 1623.87 873.95 C 1621.22 867.05 1615.04 863.60 1605.31 863.60 C 1595.79 863.60 1589.49 867.26 1586.42 874.59 C 1583.36 881.91 1581.82 898.85 1581.82 925.39 L 1581.82 1177.00 C 1581.82 1206.94 1583.25 1224.99 1586.11 1231.15 C 1588.96 1237.30 1595.15 1240.38 1604.67 1240.38 C 1614.19 1240.38 1620.43 1236.77 1623.39 1229.55 C 1626.35 1222.33 1627.84 1206.09 1627.84 1180.82 Z M 1779.20 1309.82 " fill="#FFFFFF"/>
    </g>
</svg>